<?xml version="1.0" encoding="us-ascii" standalone="no"?><svg xmlns="http://www.w3.org/2000/svg" xmlns:xlink="http://www.w3.org/1999/xlink" contentStyleType="text/css" height="428px" preserveAspectRatio="none" style="width:509px;height:428px;background:#FFFFFF;" version="1.1" viewBox="0 0 509 428" width="509px" zoomAndPan="magnify"><defs/><g><rect fill="#FFFFFF" height="216.9297" style="stroke:#181818;stroke-width:1.0;" width="10" x="222" y="112.4297"/><rect fill="#FFFFFF" height="29.1328" style="stroke:#181818;stroke-width:1.0;" width="10" x="407" y="141.5625"/><rect fill="#FFFFFF" height="29.1328" style="stroke:#181818;stroke-width:1.0;" width="10" x="470.5" y="271.0938"/><line style="stroke:#181818;stroke-width:0.5;stroke-dasharray:5.0,5.0;" x1="35" x2="35" y1="81.2969" y2="347.3594"/><line style="stroke:#181818;stroke-width:0.5;stroke-dasharray:5.0,5.0;" x1="226.5" x2="226.5" y1="81.2969" y2="347.3594"/><line style="stroke:#181818;stroke-width:0.5;stroke-dasharray:5.0,5.0;" x1="411.5" x2="411.5" y1="81.2969" y2="347.3594"/><line style="stroke:#181818;stroke-width:0.5;stroke-dasharray:5.0,5.0;" x1="475.5" x2="475.5" y1="81.2969" y2="347.3594"/><text fill="#000000" font-family="sans-serif" font-size="14" lengthAdjust="spacing" textLength="54" x="5" y="77.9951">Korisnik</text><ellipse cx="35" cy="13.5" fill="#E2E2F0" rx="8" ry="8" style="stroke:#181818;stroke-width:0.5;"/><path d="M35,21.5 L35,48.5 M22,29.5 L48,29.5 M35,48.5 L22,63.5 M35,48.5 L48,63.5 " fill="none" style="stroke:#181818;stroke-width:0.5;"/><text fill="#000000" font-family="sans-serif" font-size="14" lengthAdjust="spacing" textLength="54" x="5" y="359.3545">Korisnik</text><ellipse cx="35" cy="371.1563" fill="#E2E2F0" rx="8" ry="8" style="stroke:#181818;stroke-width:0.5;"/><path d="M35,379.1563 L35,406.1563 M22,387.1563 L48,387.1563 M35,406.1563 L22,421.1563 M35,406.1563 L48,421.1563 " fill="none" style="stroke:#181818;stroke-width:0.5;"/><rect fill="#E2E2F0" height="30.2969" rx="2.5" ry="2.5" style="stroke:#181818;stroke-width:0.5;" width="55" x="199.5" y="50"/><text fill="#000000" font-family="sans-serif" font-size="14" lengthAdjust="spacing" textLength="41" x="206.5" y="69.9951">Vozilo</text><rect fill="#E2E2F0" height="30.2969" rx="2.5" ry="2.5" style="stroke:#181818;stroke-width:0.5;" width="55" x="199.5" y="346.3594"/><text fill="#000000" font-family="sans-serif" font-size="14" lengthAdjust="spacing" textLength="41" x="206.5" y="366.3545">Vozilo</text><rect fill="#E2E2F0" height="30.2969" rx="2.5" ry="2.5" style="stroke:#181818;stroke-width:0.5;" width="51" x="386.5" y="50"/><text fill="#000000" font-family="sans-serif" font-size="14" lengthAdjust="spacing" textLength="37" x="393.5" y="69.9951">Tarifa</text><rect fill="#E2E2F0" height="30.2969" rx="2.5" ry="2.5" style="stroke:#181818;stroke-width:0.5;" width="51" x="386.5" y="346.3594"/><text fill="#000000" font-family="sans-serif" font-size="14" lengthAdjust="spacing" textLength="37" x="393.5" y="366.3545">Tarifa</text><rect fill="#E2E2F0" height="30.2969" rx="2.5" ry="2.5" style="stroke:#181818;stroke-width:0.5;" width="56" x="447.5" y="50"/><text fill="#000000" font-family="sans-serif" font-size="14" lengthAdjust="spacing" textLength="42" x="454.5" y="69.9951">Kazna</text><rect fill="#E2E2F0" height="30.2969" rx="2.5" ry="2.5" style="stroke:#181818;stroke-width:0.5;" width="56" x="447.5" y="346.3594"/><text fill="#000000" font-family="sans-serif" font-size="14" lengthAdjust="spacing" textLength="42" x="454.5" y="366.3545">Kazna</text><rect fill="#FFFFFF" height="216.9297" style="stroke:#181818;stroke-width:1.0;" width="10" x="222" y="112.4297"/><rect fill="#FFFFFF" height="29.1328" style="stroke:#181818;stroke-width:1.0;" width="10" x="407" y="141.5625"/><rect fill="#FFFFFF" height="29.1328" style="stroke:#181818;stroke-width:1.0;" width="10" x="470.5" y="271.0938"/><polygon fill="#181818" points="210,108.4297,220,112.4297,210,116.4297,214,112.4297" style="stroke:#181818;stroke-width:1.0;"/><line style="stroke:#181818;stroke-width:1.0;" x1="35" x2="216" y1="112.4297" y2="112.4297"/><text fill="#000000" font-family="sans-serif" font-size="13" lengthAdjust="spacing" textLength="77" x="42" y="107.3638">Stvori vozilo</text><polygon fill="#181818" points="395,137.5625,405,141.5625,395,145.5625,399,141.5625" style="stroke:#181818;stroke-width:1.0;"/><line style="stroke:#181818;stroke-width:1.0;" x1="232" x2="401" y1="141.5625" y2="141.5625"/><text fill="#000000" font-family="sans-serif" font-size="13" lengthAdjust="spacing" textLength="86" x="239" y="136.4966">Dohvati tarifu</text><polygon fill="#181818" points="243,166.6953,233,170.6953,243,174.6953,239,170.6953" style="stroke:#181818;stroke-width:1.0;"/><line style="stroke:#181818;stroke-width:1.0;stroke-dasharray:2.0,2.0;" x1="237" x2="411" y1="170.6953" y2="170.6953"/><text fill="#000000" font-family="sans-serif" font-size="13" lengthAdjust="spacing" textLength="149" x="249" y="165.6294">Vrati tarifne informacije</text><line style="stroke:#181818;stroke-width:1.0;" x1="232" x2="274" y1="199.8281" y2="199.8281"/><line style="stroke:#181818;stroke-width:1.0;" x1="274" x2="274" y1="199.8281" y2="212.8281"/><line style="stroke:#181818;stroke-width:1.0;" x1="233" x2="274" y1="212.8281" y2="212.8281"/><polygon fill="#181818" points="243,208.8281,233,212.8281,243,216.8281,239,212.8281" style="stroke:#181818;stroke-width:1.0;"/><text fill="#000000" font-family="sans-serif" font-size="13" lengthAdjust="spacing" textLength="161" x="239" y="194.7622">Izra&#269;unaj cijenu cestarine</text><polygon fill="#181818" points="46,237.9609,36,241.9609,46,245.9609,42,241.9609" style="stroke:#181818;stroke-width:1.0;"/><line style="stroke:#181818;stroke-width:1.0;stroke-dasharray:2.0,2.0;" x1="40" x2="221" y1="241.9609" y2="241.9609"/><text fill="#000000" font-family="sans-serif" font-size="13" lengthAdjust="spacing" textLength="142" x="52" y="236.895">Prikaz cijene cestarine</text><polygon fill="#181818" points="458.5,267.0938,468.5,271.0938,458.5,275.0938,462.5,271.0938" style="stroke:#181818;stroke-width:1.0;"/><line style="stroke:#181818;stroke-width:1.0;" x1="232" x2="464.5" y1="271.0938" y2="271.0938"/><text fill="#000000" font-family="sans-serif" font-size="13" lengthAdjust="spacing" textLength="90" x="239" y="266.0278">Provjeri brzinu</text><polygon fill="#181818" points="243,296.2266,233,300.2266,243,304.2266,239,300.2266" style="stroke:#181818;stroke-width:1.0;"/><line style="stroke:#181818;stroke-width:1.0;stroke-dasharray:2.0,2.0;" x1="237" x2="474.5" y1="300.2266" y2="300.2266"/><text fill="#000000" font-family="sans-serif" font-size="13" lengthAdjust="spacing" textLength="153" x="249" y="295.1606">Vrati informacije o kazni</text><polygon fill="#181818" points="46,325.3594,36,329.3594,46,333.3594,42,329.3594" style="stroke:#181818;stroke-width:1.0;"/><line style="stroke:#181818;stroke-width:1.0;stroke-dasharray:2.0,2.0;" x1="40" x2="226" y1="329.3594" y2="329.3594"/><text fill="#000000" font-family="sans-serif" font-size="13" lengthAdjust="spacing" textLength="163" x="52" y="324.2935">Prikaz kazne (ako postoji)</text><!--SRC=[RP0zJiGm48LxdsAK2egzm1PKD6WR9D3sisOY9bbc8jk9XE_0hJWO_aaM4z55UTzxRvxH1dNGdTIn5nuxG0-p9sScT84jJoW1khD6lceHBUwqLtJSOz52_kp_oYUCKjM91A_XqvYS3uU770L7U0bBAeUbL1YqWHSCL7eoaBWQcz17VKyQrn_pBxlshjpX5drsDre8M7fr7sXv8FD6U_FQLOrFqU7tromuGCPb1ai-Wq8LJ6HPSOHdnoF6Yb63RO7hwaBgCb2QUd6HfJb_UvWDtGze3WU5r2RS3jZi_n-MSO8x71KczK47lc_DoVG3]--></g></svg>
