<?xml version="1.0" encoding="utf-8"?>
<!-- Generator: Adobe Illustrator 27.3.1, SVG Export Plug-In . SVG Version: 6.00 Build 0)  -->
<svg version="1.1" id="Layer_1" xmlns="http://www.w3.org/2000/svg" xmlns:xlink="http://www.w3.org/1999/xlink" x="0px" y="0px"
	 viewBox="0 0 1293 581" style="enable-background:new 0 0 1293 581;" xml:space="preserve">
<style type="text/css">
	.st0{fill:#C0C0C0;fill-opacity:0.2;}
	.st1{fill:#9ED8DB;}
	.st2{fill:none;stroke:#467599;stroke-miterlimit:10;}
	.st3{fill:#1D3354;}
	.st4{font-family:'Arial-BoldMT';}
	.st5{font-size:13px;}
	.st6{font-family:'ArialMT';}
	.st7{fill:none;stroke:#000000;stroke-miterlimit:10;}
	.st8{fill:#FFFFFF;}
</style>
<g>
	<rect x="553" y="417" class="st0" width="224" height="161"/>
</g>
<g>
	<rect x="546" y="410" class="st1" width="224" height="161"/>
</g>
<g>
	<path class="st2" d="M546,410h224v161H546V410z"/>
</g>
<g>
	<path class="st2" d="M546,435h224"/>
</g>
<g>
	<path class="st2" d="M546,533h224"/>
</g>
<g>
	<g>
		<path class="st2" d="M0,0"/>
		<text transform="matrix(1 0 0 1 639.8442 423.5)" class="st3 st4 st5">Vozilo</text>
	</g>
</g>
<g>
	<g>
		<path class="st3" d="M0,0"/>
		<text transform="matrix(1 0 0 1 551 446.5)" class="st3 st6 st5">+voziloId: Integer</text>
	</g>
</g>
<g>
	<g>
		<path class="st3" d="M0,0"/>
		<text transform="matrix(1 0 0 1 551 461.5)" class="st3 st6 st5">+registracija: String</text>
	</g>
</g>
<g>
	<g>
		<path class="st3" d="M0,0"/>
		<text transform="matrix(1 0 0 1 551 476.5)" class="st3 st6 st5">+tipVozila: TipVozilaEnum</text>
	</g>
</g>
<g>
	<g>
		<path class="st3" d="M0,0"/>
		<text transform="matrix(1 0 0 1 551 491.5)" class="st3 st6 st5">+vrijemeUlaska: DateTime</text>
	</g>
</g>
<g>
	<g>
		<path class="st3" d="M0,0"/>
		<text transform="matrix(1 0 0 1 551 506.5)" class="st3 st6 st5">+vrijemeIzlaska: DateTIme</text>
	</g>
</g>
<g>
	<g>
		<path class="st3" d="M0,0"/>
		<text transform="matrix(1 0 0 1 551 521.5)" class="st3 st6 st5">+predjeniKilometri: double</text>
	</g>
</g>
<g>
	<g>
		<path class="st3" d="M0,0"/>
		<text transform="matrix(1 0 0 1 551 544.5)" class="st3 st6 st5">+izracunajCijenu()</text>
	</g>
</g>
<g>
	<g>
		<path class="st3" d="M0,0"/>
		<text transform="matrix(1 0 0 1 551 559.5)" class="st3 st6 st5">+izracunajProsjecnuBrzinu()</text>
	</g>
</g>
<g>
	<rect x="17" y="145" class="st0" width="224" height="120"/>
</g>
<g>
	<rect x="10" y="138" class="st1" width="224" height="120"/>
</g>
<g>
	<path class="st2" d="M10,138h224v120H10V138z"/>
</g>
<g>
	<path class="st2" d="M10,163h224"/>
</g>
<g>
	<path class="st2" d="M10,246h224"/>
</g>
<g>
	<g>
		<path class="st2" d="M0,0"/>
		<text transform="matrix(1 0 0 1 105.282 151.5)" class="st3 st4 st5">Tarifa</text>
	</g>
</g>
<g>
	<g>
		<path class="st3" d="M0,0"/>
		<text transform="matrix(1 0 0 1 15 174.5)" class="st3 st6 st5">+osnovnaCijena: Real</text>
	</g>
</g>
<g>
	<g>
		<path class="st3" d="M0,0"/>
		<text transform="matrix(1 0 0 1 15 189.5)" class="st3 st6 st5">+faktorMotor: Real[1.0]</text>
	</g>
</g>
<g>
	<g>
		<path class="st3" d="M0,0"/>
		<text transform="matrix(1 0 0 1 15 204.5)" class="st3 st6 st5">+faktorAuto: Real[1.2]</text>
	</g>
</g>
<g>
	<g>
		<path class="st3" d="M0,0"/>
		<text transform="matrix(1 0 0 1 15 219.5)" class="st3 st6 st5">+faktorBus: Real[1.4]</text>
	</g>
</g>
<g>
	<g>
		<path class="st3" d="M0,0"/>
		<text transform="matrix(1 0 0 1 15 234.5)" class="st3 st6 st5">+faktorKamion: Real[1.8]</text>
	</g>
</g>
<g>
	<path class="st7" d="M545,428L234,259"/>
</g>
<g>
	<path class="st7" d="M244.9,260.2L234,259l6.9,8.6"/>
</g>
<g>
	<path class="st7" d="M534.1,426.8L545,428l-6.9-8.6"/>
</g>
<g>
	<rect x="450" y="426" class="st8" width="73.3" height="13"/>
</g>
<g>
	<g>
		<path class="st8" d="M0,0"/>
		<text transform="matrix(1 0 0 1 450 432.5)" class="st6 st5">+koristiTarifu</text>
	</g>
</g>
<g>
	<rect x="528" y="400" class="st8" width="7.2" height="13"/>
</g>
<g>
	<g>
		<path class="st8" d="M0,0"/>
		<text transform="matrix(1 0 0 1 528 406.5)" class="st6 st5">1</text>
	</g>
</g>
<g>
	<rect x="122" y="282" class="st8" width="137.7" height="13"/>
</g>
<g>
	<g>
		<path class="st8" d="M0,0"/>
		<text transform="matrix(1 0 0 1 122 288.5)" class="st6 st5">+primjenjujeSeNaVozila</text>
	</g>
</g>
<g>
	<rect x="249" y="252" class="st8" width="19.5" height="13"/>
</g>
<g>
	<g>
		<path class="st8" d="M0,0"/>
		<text transform="matrix(1 0 0 1 249 258.5)" class="st6 st5">1..*</text>
	</g>
</g>
<g>
	<rect x="545" y="17" class="st0" width="232" height="104"/>
</g>
<g>
	<rect x="538" y="10" class="st1" width="232" height="104"/>
</g>
<g>
	<path class="st2" d="M538,10h232v104H538V10z"/>
</g>
<g>
	<path class="st2" d="M538,35h232"/>
</g>
<g>
	<path class="st2" d="M538,88h232"/>
</g>
<g>
	<g>
		<path class="st2" d="M0,0"/>
		<text transform="matrix(1 0 0 1 635.3555 23.5)" class="st3 st4 st5">Kazna</text>
	</g>
</g>
<g>
	<g>
		<path class="st3" d="M0,0"/>
		<text transform="matrix(1 0 0 1 543 46.5)" class="st3 st6 st5">+limitBrzina: Real</text>
	</g>
</g>
<g>
	<g>
		<path class="st3" d="M0,0"/>
		<text transform="matrix(1 0 0 1 543 61.5)" class="st3 st6 st5">+kaznaNiska: Real[50KM]</text>
	</g>
</g>
<g>
	<g>
		<path class="st3" d="M0,0"/>
		<text transform="matrix(1 0 0 1 543 76.5)" class="st3 st6 st5">+kaznaVisoka: Real[150KM]</text>
	</g>
</g>
<g>
	<g>
		<path class="st3" d="M0,0"/>
		<text transform="matrix(1 0 0 1 543 99.5)" class="st3 st6 st5">+izracunajKaznu()</text>
	</g>
</g>
<g>
	<rect x="1057" y="185" class="st0" width="232" height="112"/>
</g>
<g>
	<rect x="1050" y="178" class="st1" width="232" height="112"/>
</g>
<g>
	<path class="st2" d="M1050,178h232v112h-232V178z"/>
</g>
<g>
	<path class="st2" d="M1050,203h232"/>
</g>
<g>
	<path class="st2" d="M1050,256h232"/>
</g>
<g>
	<g>
		<path class="st2" d="M0,0"/>
		<text transform="matrix(1 0 0 1 1143.3787 191.5)" class="st3 st4 st5">Stanica</text>
	</g>
</g>
<g>
	<g>
		<path class="st3" d="M0,0"/>
		<text transform="matrix(1 0 0 1 1055 214.5)" class="st3 st6 st5">+stanicaId: Integer</text>
	</g>
</g>
<g>
	<g>
		<path class="st3" d="M0,0"/>
		<text transform="matrix(1 0 0 1 1055 229.5)" class="st3 st6 st5">+naziv: String</text>
	</g>
</g>
<g>
	<g>
		<path class="st3" d="M0,0"/>
		<text transform="matrix(1 0 0 1 1055 244.5)" class="st3 st6 st5">+brojIzlaza: Integer</text>
	</g>
</g>
<g>
	<path class="st7" d="M657,409l-3-294"/>
</g>
<g>
	<path class="st7" d="M658.3,125.1L654,115l-4.1,10.2"/>
</g>
<g>
	<path class="st7" d="M652.7,398.9L657,409l4.1-10.2"/>
</g>
<g>
	<rect x="562" y="361" class="st8" width="87.4" height="13"/>
</g>
<g>
	<g>
		<path class="st8" d="M0,0"/>
		<text transform="matrix(1 0 0 1 564.3074 367.5)" class="st6 st5">+dobivaKazne</text>
	</g>
</g>
<g>
	<rect x="660" y="381" class="st8" width="19.5" height="13"/>
</g>
<g>
	<g>
		<path class="st8" d="M0,0"/>
		<text transform="matrix(1 0 0 1 660 387.5)" class="st6 st5">0..*</text>
	</g>
</g>
<g>
	<rect x="586" y="138" class="st8" width="57.5" height="13"/>
</g>
<g>
	<g>
		<path class="st8" d="M0,0"/>
		<text transform="matrix(1 0 0 1 586 144.5)" class="st6 st5">+izdataZa</text>
	</g>
</g>
<g>
	<rect x="663" y="130" class="st8" width="7.2" height="13"/>
</g>
<g>
	<g>
		<path class="st8" d="M0,0"/>
		<text transform="matrix(1 0 0 1 663 136.5)" class="st6 st5">1</text>
	</g>
</g>
<g>
	<path class="st7" d="M771,433l282-142"/>
</g>
<g>
	<path class="st7" d="M1045.8,299.3l7.2-8.3l-11,0.8"/>
</g>
<g>
	<path class="st7" d="M778.2,424.7L771,433l11-0.8"/>
</g>
<g>
	<rect x="746" y="386" class="st8" width="72.6" height="13"/>
</g>
<g>
	<g>
		<path class="st8" d="M0,0"/>
		<text transform="matrix(1 0 0 1 746 392.5)" class="st6 st5">+prolaziKroz</text>
	</g>
</g>
<g>
	<rect x="786" y="428" class="st8" width="19.5" height="13"/>
</g>
<g>
	<g>
		<path class="st8" d="M0,0"/>
		<text transform="matrix(1 0 0 1 786 434.5)" class="st6 st5">1..*</text>
	</g>
</g>
<g>
	<rect x="949" y="273" class="st8" width="90.7" height="13"/>
</g>
<g>
	<g>
		<path class="st8" d="M0,0"/>
		<text transform="matrix(1 0 0 1 949 279.5)" class="st6 st5">+servisiraVozila</text>
	</g>
</g>
<g>
	<rect x="1058" y="305" class="st8" width="19.5" height="13"/>
</g>
<g>
	<g>
		<path class="st8" d="M0,0"/>
		<text transform="matrix(1 0 0 1 1058 311.5)" class="st6 st5">0..*</text>
	</g>
</g>
</svg>
