<?xml version="1.0" encoding="us-ascii" standalone="no"?><svg xmlns="http://www.w3.org/2000/svg" xmlns:xlink="http://www.w3.org/1999/xlink" contentStyleType="text/css" height="828px" preserveAspectRatio="none" style="width:696px;height:828px;background:#FFFFFF;" version="1.1" viewBox="0 0 696 828" width="696px" zoomAndPan="magnify"><defs/><g><ellipse cx="309.75" cy="20" fill="#222222" rx="10" ry="10" style="stroke:#222222;stroke-width:1.0;"/><rect fill="#F1F1F1" height="33.9688" rx="12.5" ry="12.5" style="stroke:#181818;stroke-width:0.5;" width="150" x="234.75" y="50"/><text fill="#000000" font-family="sans-serif" font-size="12" lengthAdjust="spacing" textLength="130" x="244.75" y="71.1387">Zabilje&#382;i ulazak vozila</text><path d="M399.25,93.9688 L399.25,117.668 L379.25,121.668 L399.25,125.668 L399.25,149.3672 A0,0 0 0 0 399.25,149.3672 L514.25,149.3672 A0,0 0 0 0 514.25,149.3672 L514.25,103.9688 L504.25,93.9688 L399.25,93.9688 A0,0 0 0 0 399.25,93.9688 " fill="#FEFFDD" style="stroke:#181818;stroke-width:0.5;"/><path d="M504.25,93.9688 L504.25,103.9688 L514.25,103.9688 L504.25,93.9688 " fill="#FEFFDD" style="stroke:#181818;stroke-width:0.5;"/><text fill="#000000" font-family="sans-serif" font-size="13" lengthAdjust="spacing" textLength="58" x="405.25" y="111.0356">Tip vozila</text><text fill="#000000" font-family="sans-serif" font-size="13" lengthAdjust="spacing" textLength="73" x="405.25" y="126.1685">Registracija</text><text fill="#000000" font-family="sans-serif" font-size="13" lengthAdjust="spacing" textLength="94" x="405.25" y="141.3013">Vrijeme ulaska</text><rect fill="#F1F1F1" height="33.9688" rx="12.5" ry="12.5" style="stroke:#181818;stroke-width:0.5;" width="139" x="240.25" y="104.6836"/><text fill="#000000" font-family="sans-serif" font-size="12" lengthAdjust="spacing" textLength="119" x="250.25" y="125.8223">U&#269;itaj detalje vozila</text><rect fill="#F1F1F1" height="33.9688" rx="12.5" ry="12.5" style="stroke:#181818;stroke-width:0.5;" width="100" x="259.75" y="169.3672"/><text fill="#000000" font-family="sans-serif" font-size="12" lengthAdjust="spacing" textLength="80" x="269.75" y="190.5059">Vozi do izlaza</text><rect fill="#F1F1F1" height="33.9688" rx="12.5" ry="12.5" style="stroke:#181818;stroke-width:0.5;" width="289" x="165.25" y="223.3359"/><text fill="#000000" font-family="sans-serif" font-size="12" lengthAdjust="spacing" textLength="269" x="175.25" y="244.4746">Zabilje&#382;i vrijeme izlaska i pre&#273;ene kilometre</text><path d="M398.75,281.7227 L398.75,290.2891 L378.75,294.2891 L398.75,298.2891 L398.75,306.8555 A0,0 0 0 0 398.75,306.8555 L654.75,306.8555 A0,0 0 0 0 654.75,306.8555 L654.75,291.7227 L644.75,281.7227 L398.75,281.7227 A0,0 0 0 0 398.75,281.7227 " fill="#FEFFDD" style="stroke:#181818;stroke-width:0.5;"/><path d="M644.75,281.7227 L644.75,291.7227 L654.75,291.7227 L644.75,281.7227 " fill="#FEFFDD" style="stroke:#181818;stroke-width:0.5;"/><text fill="#000000" font-family="sans-serif" font-size="13" lengthAdjust="spacing" textLength="235" x="404.75" y="298.7896">Upotreba tarife na osnovu tipa vozila</text><rect fill="#F1F1F1" height="33.9688" rx="12.5" ry="12.5" style="stroke:#181818;stroke-width:0.5;" width="138" x="240.75" y="277.3047"/><text fill="#000000" font-family="sans-serif" font-size="12" lengthAdjust="spacing" textLength="118" x="250.75" y="298.4434">Izra&#269;unaj cestarinu</text><rect fill="none" height="346.6055" style="stroke:#000000;stroke-width:1.5;" width="558" x="11" y="321.2734"/><path d="M162,321.2734 L162,330.5703 L152,340.5703 L11,340.5703 " fill="none" style="stroke:#000000;stroke-width:1.5;"/><text fill="#000000" font-family="sans-serif" font-size="14" lengthAdjust="spacing" textLength="141" x="14" y="335.2686">Izra&#269;unavanje brzine</text><rect fill="#F1F1F1" height="33.9688" rx="12.5" ry="12.5" style="stroke:#181818;stroke-width:0.5;" width="182" x="218.75" y="357.5703"/><text fill="#000000" font-family="sans-serif" font-size="12" lengthAdjust="spacing" textLength="162" x="228.75" y="378.709">Izra&#269;unaj prosje&#269;nu brzinu</text><polygon fill="#F1F1F1" points="223.25,411.5391,396.25,411.5391,408.25,423.5391,396.25,435.5391,223.25,435.5391,211.25,423.5391,223.25,411.5391" style="stroke:#181818;stroke-width:0.5;"/><text fill="#000000" font-family="sans-serif" font-size="11" lengthAdjust="spacing" textLength="173" x="223.25" y="427.3472">Prose&#269;na brzina &gt; dozvoljena?</text><text fill="#000000" font-family="sans-serif" font-size="11" lengthAdjust="spacing" textLength="15" x="196.25" y="420.9448">Da</text><text fill="#000000" font-family="sans-serif" font-size="11" lengthAdjust="spacing" textLength="15" x="408.25" y="420.9448">Ne</text><rect fill="#F1F1F1" height="33.9688" rx="12.5" ry="12.5" style="stroke:#181818;stroke-width:0.5;" width="115" x="61" y="445.5391"/><text fill="#000000" font-family="sans-serif" font-size="12" lengthAdjust="spacing" textLength="95" x="71" y="466.6777">Izra&#269;unaj kaznu</text><path d="M202,552.3281 L202,560.8945 L182,564.8945 L202,568.8945 L202,577.4609 A0,0 0 0 0 202,577.4609 L411,577.4609 A0,0 0 0 0 411,577.4609 L411,562.3281 L401,552.3281 L202,552.3281 A0,0 0 0 0 202,552.3281 " fill="#FEFFDD" style="stroke:#181818;stroke-width:0.5;"/><path d="M401,552.3281 L401,562.3281 L411,562.3281 L401,552.3281 " fill="#FEFFDD" style="stroke:#181818;stroke-width:0.5;"/><text fill="#000000" font-family="sans-serif" font-size="13" lengthAdjust="spacing" textLength="188" x="208" y="569.395">Podaci o vozilu se &#353;alju policiji</text><rect fill="#F1F1F1" height="33.9688" rx="12.5" ry="12.5" style="stroke:#181818;stroke-width:0.5;" width="127" x="55" y="547.9102"/><text fill="#000000" font-family="sans-serif" font-size="12" lengthAdjust="spacing" textLength="107" x="65" y="569.0488">Obavijesti policiju</text><polygon fill="#F1F1F1" points="35,499.5078,202,499.5078,214,511.5078,202,523.5078,35,523.5078,23,511.5078,35,499.5078" style="stroke:#181818;stroke-width:0.5;"/><text fill="#000000" font-family="sans-serif" font-size="11" lengthAdjust="spacing" textLength="15" x="122.5" y="533.7183">Da</text><text fill="#000000" font-family="sans-serif" font-size="11" lengthAdjust="spacing" textLength="167" x="35" y="515.3159">Prose&#269;na brzina &gt; 150 km/h?</text><polygon fill="#F1F1F1" points="118.5,601.8789,130.5,613.8789,118.5,625.8789,106.5,613.8789,118.5,601.8789" style="stroke:#181818;stroke-width:0.5;"/><rect fill="#F1F1F1" height="33.9688" rx="12.5" ry="12.5" style="stroke:#181818;stroke-width:0.5;" width="96" x="453" y="445.5391"/><text fill="#000000" font-family="sans-serif" font-size="12" lengthAdjust="spacing" textLength="76" x="463" y="466.6777">Nema kazne</text><polygon fill="#F1F1F1" points="309.75,631.8789,321.75,643.8789,309.75,655.8789,297.75,643.8789,309.75,631.8789" style="stroke:#181818;stroke-width:0.5;"/><path d="M480.25,692.2969 L480.25,700.8633 L460.25,704.8633 L480.25,708.8633 L480.25,717.4297 A0,0 0 0 0 480.25,717.4297 L684.25,717.4297 A0,0 0 0 0 684.25,717.4297 L684.25,702.2969 L674.25,692.2969 L480.25,692.2969 A0,0 0 0 0 480.25,692.2969 " fill="#FEFFDD" style="stroke:#181818;stroke-width:0.5;"/><path d="M674.25,692.2969 L674.25,702.2969 L684.25,702.2969 L674.25,692.2969 " fill="#FEFFDD" style="stroke:#181818;stroke-width:0.5;"/><text fill="#000000" font-family="sans-serif" font-size="13" lengthAdjust="spacing" textLength="183" x="486.25" y="709.3638">Ra&#269;un uklju&#269;uje sve tro&#353;kove</text><rect fill="#F1F1F1" height="33.9688" rx="12.5" ry="12.5" style="stroke:#181818;stroke-width:0.5;" width="301" x="159.25" y="687.8789"/><text fill="#000000" font-family="sans-serif" font-size="12" lengthAdjust="spacing" textLength="281" x="169.25" y="709.0176">Generi&#353;i ra&#269;un sa detaljima cestarine i kazne</text><rect fill="#F1F1F1" height="33.9688" rx="12.5" ry="12.5" style="stroke:#181818;stroke-width:0.5;" width="165" x="227.25" y="741.8477"/><text fill="#000000" font-family="sans-serif" font-size="12" lengthAdjust="spacing" textLength="145" x="237.25" y="762.9863">Vozilo napu&#353;ta autoput</text><ellipse cx="309.75" cy="806.8164" fill="none" rx="11" ry="11" style="stroke:#222222;stroke-width:1.0;"/><ellipse cx="309.75" cy="806.8164" fill="#222222" rx="6" ry="6" style="stroke:#222222;stroke-width:1.0;"/><line style="stroke:#181818;stroke-width:1.0;" x1="309.75" x2="309.75" y1="30" y2="50"/><polygon fill="#181818" points="305.75,40,309.75,50,313.75,40,309.75,44" style="stroke:#181818;stroke-width:1.0;"/><line style="stroke:#181818;stroke-width:1.0;" x1="309.75" x2="309.75" y1="83.9688" y2="104.6836"/><polygon fill="#181818" points="305.75,94.6836,309.75,104.6836,313.75,94.6836,309.75,98.6836" style="stroke:#181818;stroke-width:1.0;"/><line style="stroke:#181818;stroke-width:1.0;" x1="309.75" x2="309.75" y1="138.6523" y2="169.3672"/><polygon fill="#181818" points="305.75,159.3672,309.75,169.3672,313.75,159.3672,309.75,163.3672" style="stroke:#181818;stroke-width:1.0;"/><line style="stroke:#181818;stroke-width:1.0;" x1="309.75" x2="309.75" y1="203.3359" y2="223.3359"/><polygon fill="#181818" points="305.75,213.3359,309.75,223.3359,313.75,213.3359,309.75,217.3359" style="stroke:#181818;stroke-width:1.0;"/><line style="stroke:#181818;stroke-width:1.0;" x1="309.75" x2="309.75" y1="257.3047" y2="277.3047"/><polygon fill="#181818" points="305.75,267.3047,309.75,277.3047,313.75,267.3047,309.75,271.3047" style="stroke:#181818;stroke-width:1.0;"/><line style="stroke:#181818;stroke-width:1.0;" x1="118.5" x2="118.5" y1="523.5078" y2="547.9102"/><polygon fill="#181818" points="114.5,537.9102,118.5,547.9102,122.5,537.9102,118.5,541.9102" style="stroke:#181818;stroke-width:1.0;"/><line style="stroke:#181818;stroke-width:1.0;" x1="214" x2="421" y1="511.5078" y2="511.5078"/><polygon fill="#181818" points="417,554.8945,421,564.8945,425,554.8945,421,558.8945" style="stroke:#181818;stroke-width:1.0;"/><line style="stroke:#181818;stroke-width:1.0;" x1="421" x2="421" y1="511.5078" y2="613.8789"/><line style="stroke:#181818;stroke-width:1.0;" x1="421" x2="130.5" y1="613.8789" y2="613.8789"/><polygon fill="#181818" points="140.5,609.8789,130.5,613.8789,140.5,617.8789,136.5,613.8789" style="stroke:#181818;stroke-width:1.0;"/><line style="stroke:#181818;stroke-width:1.0;" x1="118.5" x2="118.5" y1="581.8789" y2="601.8789"/><polygon fill="#181818" points="114.5,591.8789,118.5,601.8789,122.5,591.8789,118.5,595.8789" style="stroke:#181818;stroke-width:1.0;"/><line style="stroke:#181818;stroke-width:1.0;" x1="118.5" x2="118.5" y1="479.5078" y2="499.5078"/><polygon fill="#181818" points="114.5,489.5078,118.5,499.5078,122.5,489.5078,118.5,493.5078" style="stroke:#181818;stroke-width:1.0;"/><line style="stroke:#181818;stroke-width:1.0;" x1="211.25" x2="118.5" y1="423.5391" y2="423.5391"/><line style="stroke:#181818;stroke-width:1.0;" x1="118.5" x2="118.5" y1="423.5391" y2="445.5391"/><polygon fill="#181818" points="114.5,435.5391,118.5,445.5391,122.5,435.5391,118.5,439.5391" style="stroke:#181818;stroke-width:1.0;"/><line style="stroke:#181818;stroke-width:1.0;" x1="408.25" x2="501" y1="423.5391" y2="423.5391"/><line style="stroke:#181818;stroke-width:1.0;" x1="501" x2="501" y1="423.5391" y2="445.5391"/><polygon fill="#181818" points="497,435.5391,501,445.5391,505,435.5391,501,439.5391" style="stroke:#181818;stroke-width:1.0;"/><line style="stroke:#181818;stroke-width:1.0;" x1="118.5" x2="118.5" y1="625.8789" y2="643.8789"/><line style="stroke:#181818;stroke-width:1.0;" x1="118.5" x2="297.75" y1="643.8789" y2="643.8789"/><polygon fill="#181818" points="287.75,639.8789,297.75,643.8789,287.75,647.8789,291.75,643.8789" style="stroke:#181818;stroke-width:1.0;"/><line style="stroke:#181818;stroke-width:1.0;" x1="501" x2="501" y1="479.5078" y2="643.8789"/><line style="stroke:#181818;stroke-width:1.0;" x1="501" x2="321.75" y1="643.8789" y2="643.8789"/><polygon fill="#181818" points="331.75,639.8789,321.75,643.8789,331.75,647.8789,327.75,643.8789" style="stroke:#181818;stroke-width:1.0;"/><line style="stroke:#181818;stroke-width:1.0;" x1="309.75" x2="309.75" y1="391.5391" y2="411.5391"/><polygon fill="#181818" points="305.75,401.5391,309.75,411.5391,313.75,401.5391,309.75,405.5391" style="stroke:#181818;stroke-width:1.0;"/><line style="stroke:#181818;stroke-width:1.0;" x1="309.75" x2="309.75" y1="311.2734" y2="357.5703"/><polygon fill="#181818" points="305.75,347.5703,309.75,357.5703,313.75,347.5703,309.75,351.5703" style="stroke:#181818;stroke-width:1.0;"/><line style="stroke:#181818;stroke-width:1.0;" x1="309.75" x2="309.75" y1="655.8789" y2="687.8789"/><polygon fill="#181818" points="305.75,677.8789,309.75,687.8789,313.75,677.8789,309.75,681.8789" style="stroke:#181818;stroke-width:1.0;"/><line style="stroke:#181818;stroke-width:1.0;" x1="309.75" x2="309.75" y1="721.8477" y2="741.8477"/><polygon fill="#181818" points="305.75,731.8477,309.75,741.8477,313.75,731.8477,309.75,735.8477" style="stroke:#181818;stroke-width:1.0;"/><line style="stroke:#181818;stroke-width:1.0;" x1="309.75" x2="309.75" y1="775.8164" y2="795.8164"/><polygon fill="#181818" points="305.75,785.8164,309.75,795.8164,313.75,785.8164,309.75,789.8164" style="stroke:#181818;stroke-width:1.0;"/><!--SRC=[VL8xJiDG4EnzYYsJ2YXe4WaQ94GJeeYaG3IRU4FMdxVM-xWmuWWfE48kGXNVY_KdaOCGRkpddPdTsNdEe_NHv1NNd2LKVpE432jCePIACvn6qMHvtBF716Bog9XpnOWdiFo-ynDuuQB__sOMzCxEMznmegULvOHoQcHTYYgtKXZ40bmrZQONlSiUtDGK3Go5fUCN6OAKCyd9Msf6Ugei7lV1w5GRScg1JRWSQ5c8OjS8JN5BO1346Ia3U2wmdpMA2dNFdiN0MR94eoRNjcBj-X61FiD-XHMNq75lGeVHlWs4jp2QQwcfO5T1k5EVLIbgpk3z6FoE38mUSDmoVWkdM9t4_X6ykRs6DB_Q_IdNIZwliTGjEg_BaumrXO5gympND9TOSmBf5XB04TG7JJcSk7ocaebvsvueKzXeHWCVCygnTK1ThmxygL4zQdYMwmD3vnGSzZU9bN9AJoC_qOVZBJfAI7KY_T9SN4dWhTI7L4hgRrCc6cyHweD7mE2b27uQENt_0000]--></g></svg>